<?xml version="1.0" encoding="UTF-8"?><svg id="Ebene_2" xmlns="http://www.w3.org/2000/svg" viewBox="0 0 33.3 28.44"><defs><style>.cls-1{fill:#fff;stroke:#fff;stroke-miterlimit:10;stroke-width:.5px;}</style></defs><g id="Ebene_1-2"><path class="cls-1" d="M32.8.75H.5c-.14,0-.25-.11-.25-.25s.11-.25.25-.25h32.3c.14,0,.25.11.25.25s-.11.25-.25.25Z"/><path class="cls-1" d="M32.8,28.19H.5c-.14,0-.25-.11-.25-.25s.11-.25.25-.25h32.3c.14,0,.25.11.25.25s-.11.25-.25.25Z"/><path class="cls-1" d="M32.8,14.55H.5c-.14,0-.25-.11-.25-.25s.11-.25.25-.25h32.3c.14,0,.25.11.25.25s-.11.25-.25.25Z"/></g></svg>