<?xml version="1.0" encoding="UTF-8"?><svg id="Ebene_2" xmlns="http://www.w3.org/2000/svg" viewBox="0 0 223.81 67.47"><g id="Ebene_1-2"><path d="M158.48,22.85s-.18-.05-.26,0c-.67.34-1.5,1.98-1.9,2.61-.14.21-.42.41-.54.67v.34c.21.1.13.42.15.44.03.03.18-.04.26,0,.21.13.44.54.67.71.12.09.54.28.68.37.94.64,1.98,1.45,2.59,2.42.44.69.41.47.92.81s.42.79.56,1.14c.22.53,1.05,2.04,1.12,2.45.04.2-.06.48-.02.69.01.07.16.11.17.18.03.21-.05.48-.02.69,0,.07.16.11.17.18.04.46,0,1.25-.06,1.72,0,.06-.17.1-.18.17-.12.9-.15,1.65-.43,2.48h-.34c-.06.71-.22,1.65-.43,2.3-.05.14-.67.52-.71.66-.45,1.39-2.28,4.38-3.55,5.31-.07.05-.54.17-.62.41-.27.84-.38.44-.54.58s-.31.87-1.06.65c.02.44-.51.5-.38,1.02-.98.35-1.81,1.57-2.82,1.8v.34c-.93.2-1.7.76-2.55,1.12-2.51,1.06-4.76,1.96-7.34,2.5-1.15.24-2.26.48-3.48.74-1.43.3-2.87.5-4.34.71-.47.07-1.1.19-1.56.29-1.1.23-2.33.07-3.46.23-.77.1-.94.28-1.73.11-.65-.14-4.08,0-4.23-.15.07-.47-.43-.63-.75-.89l.07.52c-.29-.05-.68.03-.95-.03-.05-.01-.7-.31-.85-.37-1.18-.51-2.13-1.5-3.3-1.84v-.34c-.69-.06-.89-1.21-1.68-1.09-.03-.03.04-.16,0-.26-.05-.15-.32-.13.01-.34-.33-.33-.5-.73-1.01-.64.15-.39-.6-.74-.66-.97-.16-.65-.16-.64-.48-1.22-.41-.76-.16-.83-.3-1.39-.02-.1-.31-.26-.33-.36-.11-.45,0-1.45-.11-1.9-.02-.1-.31-.26-.33-.36-.12-.49.48-2,.27-2.75l.73-1.01-.35.07v-.43c.31-.45.69-.88.92-1.35.31-.62.49-1.49.76-2.04.3-.59.82-1.14,1.09-1.69s.88-.93.9-1c.05-.15-.03-.37.02-.52.13-.43,1.49-.93,1.43-1.42h.34s.01-.33.01-.33h.34c-.32-.98,2.05-1.95,2.15-2.24.28-.87.62-.9.92-1.52.28-.58.51-1.31.76-1.87.69-1.53,1.5-3.19,2.23-4.66h.34c-.02-.47.54-.73.56-1.18h.34c-.08-.28.15-.31.19-.41.11-.26.17-.72.38-1.02.46-.67,1.26-.32,2-.36.33.17.18.47.24.61.06.15.38.52.32.7l-1.25,1.34-2,3.03.04,1.29.61-.15-.34-.18.19-.51,1.55.23-.15-.52.25.35.79-.32.21-1.03.68.2-.15-.52.77.2.61-.15v-.34c.48.06.91.05.89-.49h.34s.19-.58.19-.58l-.15-.61-.7.15v-.34s.19.05.27,0c.28-.14,1.16-.97,1.24-.99.44-.1,1.29.16,1.72.06.1-.02.26-.31.36-.33.25-.06,1.03.11,1.12.04l-.16-.26c.35-.46.67-.46,1.22-.39l-.36.33,1.03.21-.5-.62c.48-.4,1.09-.65,1.75-.54l-.7.32.42.36.35-.16c.05-.02.13.03.17,0,.53-.29.45-1.08,1.32-.82l-.36.33,1.55.05-.32-.7c.39.09.68.28,1.11.21.84-.13.95.21,1.37.22.06,0,.11-.16.18-.17.24-.03.53.04.78.03l-.15-.52c.36.04.77-.01,1.12.04.06,0,.1.17.17.18.35.05.76,0,1.12.04v-.34s1.04.21,1.04.21l-.16-.26c.26-.4.6-.17.96-.23.07,0,.11-.15.18-.17.43-.09.62.18.68.2.35.06.99.1,1.21-.13l.4.88c-.49.08-.6.31-.94-.2-.91.15-1.85.12-2.77.25-2.21.31-4.37.49-6.59.98-.8.18-1.66.58-2.44.78-.25.06-.77.04-1.04.14-1.01.36-1.65.83-2.8,1.11-.15.04-.44.55-.96.31l.41.53.76.37v.34s.33.01.33.01l.31.96-.56,1.19c-.48.39-2.3,1.27-2.48,1.81-.28.87-2.22,2.46-3.05,3.34-.53.57-2,2.45-2.6,2.75-.55.28-.41.84-1.25,1.34-.27.16-.36.66-.72.84-.42.21-.24.32-.54.5-.87.51-1.56,1.42-2.48,1.81-.14.06-.62.31-.7.32-.28.04-.65-.06-.95-.03.16-.49-.46-.5-.5-.53-.03-.03.05-.18,0-.26-.14-.27-.64-.6-.83-.89l-.14-.87c.48-.69.62-1.59.77-2.39l.89-.83-.24-.44c-.1.22-.42.14-.44.16-.05.04-.04.66-.54.5l.16.44-.71.49c-.49,1.03-1.2,1.48-1.81,2.35-.37.54-1.72,2.02-1.81,2.35-.06.24.04.64-.03.86-.03.09-.33.24-.36.33-.12.37-.12.9-.21,1.2-.02.05-.49.58-.55.84-.08.36.04.87-.04,1.21-.01.06-.35.45-.36.5-.24.93.1,2.18-.1,2.93-.08.32.2,1,.3,1.39.02.1.31.26.33.36.21.81.38.96.64,1.57.19.45.07.56.14.87s.93.3,1.18.73c.43.72,1.63,1.57,2.43,2.07s1.26.5,2.05.76c.3.1.67,1.12,1.26.91l-.18.34,1.71.4-.36.5c.33.02.56.3.94.2.16-.04.55-.76.46-.85l-.69-.02v-.34c-.24-.02-.51,0-.76-.03-.21-.02-.65.11-.6-.19l2.41.08v.34s1.2.04,1.2.04l-.16-.35c.31-.02.65.06.95.03.06,0,.12-.16.18-.17.66-.04,1.39.09,2.07.07l.25.27-.69.06.6.19,1.06-.65c.64-.1,1.88.04,2.42-.09.1-.02.26-.31.36-.33.75-.19,1.47-.1,2.25-.27.91-.19,1.59-.76,2.26-.44,1.09-.39,2.31-.32,3.48-.74.21-.07.66-.48.71-.49.27-.06.74.09,1.03.04s1.28-.58,1.58-.64c.2-.04.5.07.69.02.06-.01.5-.44.71-.49.67-.16,1.64-.39,2.27-.78.93-.58,1-.7,2.11-.96.26-.06,1.48-1.55,2.13-1.82.79-.33,1.41-.4,1.68-1.23.09-.28,1.31-1.33,1.62-2.01.2-.43.32-.14.55-.84.06-.19,1.01-.81,1.07-1,.18-.58-.17-.77.47-1.1.37-.2.54-1.22.66-1.61.25-.82,1.25-1.81,1.47-2.71.07-.29-.05-.77.04-1.03.02-.06.49-.48.54-.67.11-.43.07-.96-.3-1.22.82-1.15-.37-2.2-.58-3.12-.03-.15.05-.37.02-.52-.02-.09-.27-.24-.33-.36-.17-.34-.3-.92-.48-1.22-.2-.34-.49-.29-.85-.29.1-.28-.13-.35-.16-.44-.05-.2.12-.67-.23-.78-.74-.24-.95-.83-1.18-.9-.44-.14-1.57-.78-1.77-1.18-.04-.08.04-.22,0-.26l-.86-.03s.03.17,0,.26c-.12.26-.38.45-.54.67-2.06,2.72-4.17,5.57-5.99,8.5h-.34c.09.33-.24.38-.37.58-.62.98-.77,1.11-1.11,2.2-.09.3-.69.74-.72.84-.11.35.06.77-.21,1.2-.15.23-.57.36-.54.67-.29.23-1.41,1.15-1.68,1.06l-1.25-1.34c.27-.13.13-.38.19-.51.45-1.01,1.07-1.92,1.65-2.87.36-.59.78-1.23,1.1-1.86.35-.68.81-1.07,1.27-1.68.97-1.28,1.82-2.71,2.73-4.04.41-.32.67-.87,1.23-.73l-.15-.61,2.91-4.21c.11-.42-.1-.53-.15-.69-.03-.1.04-.24.01-.34-.02-.1-.31-.26-.33-.36-.1-.43-.19-1.27-.11-1.73.01-.06.17-.1.18-.17.05-.24,0-.53.03-.77.6.08.71-.76,1.16-.99.39-.2.44-.49.89-.83.11-.08,1.16-.8,1.24-.82.49-.12,1.25-.38,1.75-.63.12-.06.27-.31.36-.33.33-.08.67.2.96-.23.6-.87,1.46-1.19,2.14-1.99.07-.08.3-.59.37-.68.34-.41,1.27-.8.65-1.27-.16.25-.35.12-.52.15-.5.11-1.29.18-1.74.46-.16.1-.43.47-.54.5-.19.05-.5-.07-.69-.02-.15.03-.57.63-.71.66-.23.05-.61-.07-.86-.03-.12.02-.56.24-.87.31-.15.04-.29.46-.62.32l.15.69-1.47-.05c-.22.25-.74.21-1.05.31-.09.03-.47.32-.53.33-.14.03-.54,0-.69-.02-.06-.01-.1-.15-.17-.18-.1-.04-.24.02-.34-.01-.09-.03-.22-.29-.33-.36-.08-.05-.23.02-.26,0-.03-.03.04-.16,0-.26-.03-.07-.15-.12-.17-.18-.09-.44.27-.69.21-1.11.37.1.52-.32.79-.49.08-.05,1.33-.62,1.4-.64,1.03-.24,1.78-.69,2.79-.94.46-.11,1.38-.6,1.58-.64.8-.14.68-.06,1.4-.47.68-.38,1.2-.61,1.93-.8.12-.03.41-.47.54-.5.29-.07.85.07,1.21.04,1-.09,2.47-.8,3.48-.91.45-.05,1.17.14,1.55.05.1-.02.26-.31.36-.33,1.16-.29,3.11-.17,4.16-.37.5.03,1.65-.1,1.8.49.04.15,0,1.04-.04,1.21-.05.19-.52.62-.54.67-.06.2.07.68-.29.77-.11.03-.24-.04-.34-.01-.28.08-.45.09-.7.15-.13.03-.83.82-1.07,1-1.13.85-2.76,1.39-4.04,2.1-.67.37-1.34.77-2.11.96-.12.03-.41.47-.54.5-1.41.35-2.32,1.48-3.28,2.56-.5.56-1.53,2.17-1.81,2.44ZM167.84,11.8c-.53-.05-.58.37-.55.84.38-.15.61-.43.55-.84ZM166.73,13.83l-.23-.7c-.15.09-.42.47-.54.5-.19.05-.5-.07-.69-.02-.11.03-.78.69-.63.84l.6.19c.5-.23.86-.79,1.5-.81ZM155.56,22.23c.43.1.6-.12.88-.4-.29-.67-1.05.22-.88.4ZM155.19,23.08l-.06-.86-.8.75.86.12ZM140.71,22.41h-.34s-.01.33-.01.33h-.34s0,.16,0,.16h.43s.28-.49.28-.49ZM141.22,22.6h-.34s0,.16,0,.16h.34s0-.16,0-.16ZM154.62,24.61l.02-.52h-.17s-.02.51-.02.51h.17ZM134.04,25.62l-1.04.14v.34c-2.07,1.09-4.06,2.31-5.93,3.76-.46.36-1.32,1.26-1.78,1.49-.08.04-.23-.04-.26,0s.04.18,0,.26c-.21.34-.95.79-1.25,1.16-.69.86-1.35,2.56-1.85,3.56-.15.3-.52.62-.54.67-.13.41.14.63.15.69.03.29-.05.64-.03.95.62.15.87-.18,1.31-.47.04-.02.13.03.17,0,.28-.16.32-.49.46-.76.26-.52.22-.3.45-.42.94-.48,2.86-2.83,3.67-3.75,1.17-1.34,2.28-2.71,3.42-4.02.76-.88,1.64-1.79,2.17-2.77.51.1.96-.27.89-.83ZM158.26,29.05l-.33-.36v.34s.33.01.33.01ZM127.37,28.67h-.34s.25.34.25.34h.09s.01-.34.01-.34ZM118.56,36.47c-.11,0-.12.17,0,.17s.12-.17,0-.17ZM120.04,38.41c-.11,0-.12.17,0,.17s.12-.17,0-.17ZM149.09,54.75v-.34s-.34.25-.34.25v.09s.34.01.34.01ZM120.18,57.03h-.34s0,.16,0,.16h.34s0-.16,0-.16ZM125.28,59.28h-.34s0,.16,0,.16h.34s0-.16,0-.16Z"/><path d="M202.99,23.7c-.19.18-.18.85-.82,1.18-.94.48-1.37.9-1.71,1.92-.06.19-.67.39-.54.76l-.78-.03c-.28.24-.5.62-.47,1.02.25-.02.54.06.78.03.67-.08.46-.16,1.21.04.4.11.62-.14.95-.14-.07-.28.11-.29.19-.42.54-.87,1.22-1.62,1.81-2.52.15-.23.15-.58.46-.76.08-.05.45-.11.52-.15.41-.24.2-.49.29-.77.08-.24,3.41-2.83,3.82-3.06.2-.12.66-.2.87-.31.17-.09.79-.64.89-.66.22-.05.6.06.86.03.07,0,.12-.16.18-.17.4-.03,1.36-.02,1.72.06.06.01.1.16.17.18.61.17,1.75.4,1.78,1.1.66-.06,1.28.43,1.52,1,.26.62,1.06,1.41,1.15,1.76.04.15-.05.37-.02.52.02.1.31.26.33.36.03.12,0,.55-.02.69-.01.07-.16.1-.18.17-.05.21.03.49-.02.69,0,.04-.3.57-.37.68-.07.11-.26.21-.36.33-.04.05-.01.27-.27.42-.29.17-.88.33-1.22.47-2.44,1.03-4.91,1.73-7.5,2.15-.57.09-1.35.02-1.73.11-.1.02-.26.31-.36.33-.7.17-1.4.02-2.08.1-.05,0-.3.29-.61.15-.02.14.02.31-.01.43-.07.21-.35.85-.38,1.02-.09.59-.23,3.28-.13,3.79.01.06.14.1.17.18.02.05-.03.13,0,.17.14.26.57.53.75.8.55.01.94.29,1.55.23.06,0,.11-.15.18-.17,1.26-.21,2.47-.42,3.74-.73v-.34c.69-.09,1.18-.72,1.93-.62v-.34c.85-.42,1.57-.69,2.55-.95.24-.06,1.38-1.01,1.77-1.15.44-.16,1.03-.04,1.39-.12.1-.02.26-.31.36-.33.78-.19.91-.35,1.58-.64.71-.3.95-.44,1.75-.63.3-.07.54-.47,1.05-.31.15.05.32.54.76.37.07-.75.75-.71,1.4-.64-.23.28-.69.84-.98,1-.41.23-.36-.01-.62.41-.13.22-.58.45-.71.66-.05.08.02.23,0,.26s-.18-.05-.26,0c-.12.06-.27.31-.36.33-.12.03-.26-.05-.34-.01-.73.32-1.46.66-2.11.96-1.55.73-2.8,1.71-4.39,2.09-.29.07-.67.49-1.06.65-1.17.48-2.45,1.14-3.68,1.6-.97.36-1.81.74-2.79.94-.23.05-.49.15-.52.15-.55.08-1.31-.24-1.73.11h-.17c-.27-.44-.65-.44-1.02-.56-.08-.03-1.24-1-1.08-1.24h-.34c.02-.51-.9-1.45-.97-1.86-.08-.43.05-1.03-.3-1.39l.15-4.3-.25-.27-.35.16-.17-.18-.18.17c-.43-.37-1.22-.14-1.8-.23.09.28-.17.36-.19.42-.1.49,0,1.19-.06,1.72-.15,1.39-.48,2.81-.67,4.29-.11.83-.48,1.85-.61,2.56-.06.31.04.78-.04,1.03-.01.04-.54.54-.62.58-.04.02-.12-.03-.17,0-.08.03-.12.15-.18.17-.18.03-.84,0-1.03-.04-.06-.01-.1-.15-.17-.18-.1-.04-.24.02-.34-.01-.08-.03-.68-.6-.84-.72-.95-.75-1.88-1.97-2.05-3.17-.03-.03-.18.04-.26,0-.28-.17-.54-1.88-.7-2.35-.37-1.14-.86-2.01-.92-3.31,0-.21.02-.52-.24-.61-.34-.12-.7.72-.64.93-.72.6-.88,1.36-1.28,2.02-.23.38-.47.59-.38,1.11.59-.08.98.27,1.55.23l.2-.85c.3.06.45-.25.78-.15.18.06.3.41.24.61-.1.29-.46.2-.61.24-.26.07-1.34,1.32-1.52,1.58-.24.34-.64.32-.96.4-.15.04-.27.46-.7.32-.1-.03-.24-.33-.33-.36-.11-.03-.24.02-.34-.01-.28-.09-.73-1.68-1.05-2.02-.08-.43.16-.56.2-.68.04-.15-.03-.37.02-.52.02-.06.46-.87.55-1.02.22-.36.82-.72.73-1.27-.16-.18-1.02.55-.89.83h-.34c-.92,1.3-2.9,2.24-4.34,3.11-.78.47-1.45,1.01-2.3,1.47-.5.09-1.09-.52-1.55-.05h-.17c-.18-.17-.32-.39-.5-.54-.04-.03-.14.02-.17,0-.44-.38-.94-.94-.9-1.5.58-.38.45-1.05.05-1.55v-.34c.28-.13.14-.37.2-.51.28-.67.69-1.8,1.12-2.37.78-1.06.99-2.82,1.86-3.9.44-.54.65-.4.9-1.18.07-.22,2.74-3,3.13-3.25.06-.04.27,0,.44-.24.45-.65.31-.24.96-.4.05-.01.4-.37.71-.49.54-.23,1.21-.67,1.75-.8.14-.04.36.05.52.02.07-.01.11-.16.18-.17.15-.02.55-.01.69.02.06.02.41.32.51.36.24.11.74.18,1.02.38.08.06.57.58.58.62.05.19-.07.5-.02.69.03.11.41.37.5.53.24.44.06.81.13,1.21.01.07.23.13.16.35-.04.13-.31.53-.37.68-.1.25-.24.48-.2.77.33.1.41-.19.62-.32.25-.16,1-.52,1.15-.74.05-.07.14-.44.19-.51.33-.47.87-.61,1.33-.9h.34c.15.31.45.14.68.21.03,0,.41.42.42.45.04.16,0,1.2-.05,1.38-.05.19-.42.51-.54.67-.03.04.02.14,0,.17-.31.38-.83.61-.9,1.18l.42.27.52-.15c.57.45,1.37.4,2.14.42v.26c-.01.15.33.12.42.1.32-.08.2-.61.46-.76-.19-.53.32-.92.39-1.19.1-.4-.06-.78.21-1.2.15-.23.84-.68.89-.83.1-.31-.06-.9.04-1.21.02-.07.59-.55.72-.84.03-.96.74-1.51,1.12-2.37l3.12-2.74c.51.09,1.25-.06,1.72.06.19.05.61.52.67.54.11.03.24-.02.34.01.37.12.19.68.23.96,0,.07.16.11.17.18.02.2.01.67-.03.86-.08.36-.67,1.08-.74,1.35-.13.5-.17,1.03-.4,1.54-.13.28-.98,1.66-1.18,1.77-.08.04-.23-.04-.26,0ZM202.62,19.37v-.34s-.16,0-.16,0v.34s.16,0,.16,0ZM202.24,20.4c-.16.02-.45-.11-.52.07-.05.13-.13.42-.19.51-.44.7-1.11,1.56-1.63,2.18l-.38.93.78-.15.17.18c.42-.26.25-.74.3-1.2h.34c-.05-.7.64-1.2.92-1.77.12-.24.23-.49.2-.77ZM208.02,28.01c.62.1,1.12-.13,1.65-.29.84-.24,1.91-.45,2.79-.77.51-.18.51-.48,1.05-.31.37.12.7-.34,1.05-.48.09-.04.23.04.34.01.04-.01.57-.5.62-.58.02-.04-.02-.12,0-.17.04-.07.16-.11.18-.17.16-.61-.05-.91-.3-1.39-.23-.44-.78-.7-.83-.89-.11-.45.11-.35-.41-.62-.07-.04-.1-.15-.17-.18-.09-.04-.24.03-.34-.01-.07-.03-.1-.16-.17-.18-.23-.07-.53.1-.68-.2l-1.75.63c-1.35,1.21-2.68,1.67-3.99,3.05-.59.62-1.01.88-1.27,1.68-.03.1-.69.74-.72.84-.05.16.01.42-.02.6l.77.2,1.58-.81.59.37v-.34ZM183.3,21.46c-.11,0-.12.17,0,.17s.12-.17,0-.17ZM184.51,28.92c.15-.14.2-.32.63-.67.77-.61,1.39-1.42,2.3-1.64.28-.07.34-.66.29-.94-.01-.06-.3-.43-.33-.53-.11-.33-.25-1.2-.29-1.56-.03-.27.07-.61.03-.86-.01-.07-.31-.55-.41-.62-.04-.03-.26.01-.34-.18l-2.26.44c-2.63,2.01-4.27,3.95-5.67,6.78-.49.99-.97,1.79-1.31,2.88-.08.25-.51.81-.73,1.01-.08.29-.28.51-.2.85.14.6.86-.1,1.13-.22.94-.43,1.88-.85,2.81-1.45,1.09-.71,2.62-1.62,3.29-2.64h.34c-.14-.51.66-.61.71-.65ZM201.22,25.01c.29-.11.58-.37.54-.67-.29.11-.58.37-.54.67ZM196.69,26.24l.02-.52h-.17s-.02.51-.02.51h.17ZM199.8,26.17l-.52-.02v.17s.51.02.51.02v-.17ZM216.18,26.91h-.34c.13.23.21.39.15.68h.17s.02-.68.02-.68ZM213.39,27.67l-.69-.02v.09c.18.27.36.31.68.28v-.34ZM214.42,27.71l-.52-.02c-.08.41.06.73.49.71l.02-.69ZM194.12,28.04c-.11,0-.12.17,0,.17s.12-.17,0-.17ZM206.36,28.81c-.11,0-.12.17,0,.17s.12-.17,0-.17ZM205.66,28.96c-.11,0-.12.17,0,.17s.12-.17,0-.17ZM191.12,32.42c.07.08-.11,1.32-.06,1.64.01.06.3.44.33.53.06.19.08.7.14.87.38.99,1.08,1.74,1.46,2.64.02.05-.03.13,0,.17.16.3.52.42.76.63l.8-.75-.33-.53c.42-.48.09-1.45.24-2.06.12-.46.79-1.23.24-1.89v-.34s.55-.67.55-.67c-.37-.35-.01-1.1-.12-1.56l-.49-.71.37-.85-.42-.27c-.4.15-.92.05-1.38-.05-.7-.15-1.52-.44-2.22-.59-.16-.03-.53-.05-.69-.02-.06,0-.1.14-.18.17-.09.04-.23-.04-.26,0-.03.03.04.18,0,.26-.07.12-.33.25-.36.33-.14.43.29.55.32.7.06.24-.11,1.05-.04,1.12l.68.2c-.11.53.1,1.03.65,1.06ZM210.05,29.45h-.34s0,.16,0,.16h.34s0-.16,0-.16ZM181.79,32.79l.6.19.27-.25-.25-.27-.61.15v.17ZM184.45,33.22c-.11,0-.12.17,0,.17s.12-.17,0-.17ZM184.33,34.25l.02-.52h-.17s-.02.51-.02.51h.17ZM190.26,34.8c-.11,0-.12.17,0,.17s.12-.17,0-.17ZM174.89,35.14c-.11,0-.12.17,0,.17s.12-.17,0-.17ZM195.08,37.73l-.15-.61.1-.26-.45.59.51.28ZM191.7,38.3c-.11,0-.12.17,0,.17s.12-.17,0-.17ZM195.15,38.42c-.11,0-.12.17,0,.17s.12-.17,0-.17Z"/><path d="M27.86.59h.34s.15.79.15.79c-.1.15-.5.39-.54.5-.16.5-.74,1.71-1.19,1.94-.28.14-.73.67-.99,1.09-.2.31-.36.9-.56,1.19-.45.65-1.26.6-2,.53l-.98.74c.01.44-.83,1.1-.91,1.35-.27.82-2.22,2.6-2.88,3.52-.48.68-.97,1.68-1.46,2.36-.14.19-.67.54-.71.66-.65,1.99-2.08,3.25-3.11,5.06-.42.75-.79,1.36-1.28,2.02-.03.04.02.14,0,.17-.31.38-.55.48-1.05.39-.07.07.02,1.18-.05,1.46-.09.36-.89,1.66-1.11,2.03-.31.55-.54.97-.74,1.53-.28.77-.76,1.49-1.11,2.2-.3.6-.53.92-1.08,1.34v.17c.55.54-.15,1-.22,1.2-.06.19-.07.49-.2.68-.43.66-.7,1.73-.95,2.55-.12.38-.39.79-.56,1.36-.26.83-1.29,1.95-.96,2.72l-.54.5c-.12.95-.55,1.85-.78,2.73-.38,1.42-.54,2.89-.15,4.3.14.19.51.9.74.97s.53-.1.68.2c.09-.19.3-.13.35-.16.18-.11.35-.38.54-.5.81-.51,1.65-1.1,2.47-1.64,1.07-.7,2.18-1.14,2.76-2.4.2-.44.48-.25.73-1.01.13-.4,3.07-2.05,3.38-2.81l-.17-.18c.41-.99,1.27-1.66,2.06-2.26.91-.69,1.29-2.16,1.99-2.52.44-.23.36-1.07.91-1.35.71-.37.79-1.45,1.62-1.84.58-.28.34-.3.63-.75.34-.53,1.1-.85,1.25-1.34.39-1.24,1.02-1.71,1.82-2.69.51-.63.69-1.62,1.11-2.2.61-.85,1.29-1.69,1.65-2.7s1.07-1.47,1.64-2.36c.34-.54.55-1.29.76-1.87.37-1.04.62-2.25.98-3.24.22-.61.64-1.64.77-2.21.06-.28-.01-.65.03-.95-.24.03-.57-.08-.78-.03-.12.03-1.2.88-1.33,1.07-.07.11-.19.44-.19.6-.73-.09-1.22.78-1.6,1.24-.3.36-.86.49-1.06.83-.26.43-.26.27-.79.4-.46.11-.39.69-.46.93-.04.13-1.84,1.77-2.05,1.91-.07.04-.45.11-.52.15-.36.22-.28.55-.29.94l-1.24.82v.43s-.36-.01-.36-.01c-.03.03.03.17,0,.26-.27.59-.89,2.05-1.62,1.93-.16.81-.68,2.18-1.63,2.18.14.49-.84,1.05-.91,1.26-.11.35.06.65-.46.93-.83-.75.52-.87.65-1.27.08-.27-.05-.76.04-1.03,0-.03.26-.34.36-.5.42-.7.76-1.39,1.28-2.02.33-.41.53-.26.71-.66.89-1.95,2.76-3.92,4.33-5.54,1.15-1.18,2.58-2.98,4.09-3.56.03-.03-.03-.17,0-.26.2-.43.51-1.18,1-1.43.42-.21.24-.32.54-.5.08-.04.45-.11.52-.15.16-.1.43-.47.54-.5.3-.07.85.08,1.21.04.06,0,.11-.15.18-.17.28-.05,1.04.2,1.11.47.03.11-.04.24-.01.34.02.1.31.26.33.36.07.31-.03,2.16-.09,2.58-.05.33-.29,1.34-.4,1.71-.03.09-.32.24-.36.33-.58,1.73-.98,3.29-1.9,4.93-.06.11-.33.24-.36.33-.34,1.06-.51,1.81-1.3,2.71-.32.36-.69.55-1.06.83l.42.45,1.39-.3c.58-.38,1.2-.85,1.92-.62.06.02.47.48.67.54.15.05.37-.03.52.02.05.02.74.75.75.8.04.15-.05.37-.02.52.02.07.15.11.17.18.04.18.18.76.14.87-.02.07-.17.1-.18.17-.04.21.03.5-.02.69-.09.33-.26.84-.39,1.19-.52,1.49-1.9,2.88-2.4,4.4-.04.13-1.73,1.46-1.95,1.57-.05.47-.62,1.24-.92,1.61-.38.46-1.05.74-1.09,1.43l.51.1c.29-.08.69-.41.89-.66.36-.46.41-1.36.83-1.61.49-.29,1.89-1.41,2.05-1.91.26-.83.26-.52.55-1.02.24-.4,1.11-1.4,1.6-1.24.38-1,1.08-1.98,1.82-2.78.39-.41.67-.47.89-.83.2-.32.64-.45.8-.58.21-.16.43-.47.62-.58.73-.41,1.21.52,1,1.15h.43c.34.45-.26.66-.46.95-.19.26-.28.73-.38,1.02-.05.14-1.7,1.79-1.97,2.17-.05.07-.14.45-.19.51-.72.97-1.65,1.84-2.17,2.86-.37.72-1.19,1.46-1.63,2.18-.92,1.5-1.98,2.76-2.91,4.38-.33.58-.74,1.4-.93,2.04-.08.26.1.57-.29.77l-.69-.02-.58-.8.02-.52.36-.33-.14-1.04c.44-.71,1.27-1.08,1.11-2.12-.14-.17-.8.44-.88.57-.18.3-.85.84-1.25,1.34-.6.73-2.26,1.56-3.09,2.05-.19.12-.31.28-.28.51-.3,0-.67.07-.95.14-.07.02-.11.15-.18.17-.55.11-1-.43-1.53-.57-.15-.25-.46-.58-.58-.8-.17-.31-.08-.62-.14-.87-.02-.08-.32-.46-.33-.53-.04-.25,0-1.28.05-1.55.01-.07.18-.11.18-.17s-.15-.11-.17-.18c-.11-.44.32-.53.37-.68.1-.31-.06-.9.04-1.21.03-.09.33-.24.36-.33.08-.25-.01-.47.37-.68l-.41-.62-1.88,1.92c.02.67-1.13.95-1.25,1.34-.44,1.35-1.73,1.93-2.69,3.01-.34.39-.88,1.11-1.17,1.25-.58.3-2.44,2.71-3.4,3.33-.39.25-.4.38-.71.49-.57.22-1.18.99-1.77,1.32-.5.27-1.26.42-1.75.8-.27-.05-.62.03-.86-.03-.06-.02-.09-.15-.17-.18-.24-.11-.65-.25-.85-.37-.99-.63-1.25-1.18-1.74-2.21-.06-.12-.31-.26-.33-.36-.03-.11.04-.24.01-.34-.02-.07-.15-.11-.17-.18-.09-.43.16-.57.2-.68.04-.15-.03-.37.02-.52.03-.09.33-.24.36-.33.12-.39.1-1.09.05-1.38-.2-1.06.34-1.19.76-1.87.27-.44.42-1.07.57-1.53.29-.9.62-1.73.95-2.55.29-.73.25-1.24.41-1.88.27-1.06,2.06-2.47,1.51-3.74.15-.35.48-.54.72-.84.4-.5.58-.92.74-1.53.36-1.33,1.1-2.58,1.68-3.73.23-.45.71-1.53,1.18-1.77.08-.04.23.04.26,0l.04-1.29.89-.83v-.34c-.59-.77.65-1.28,1.11-1.86.51-.63.86-1.48,1.11-2.2.67-.81.8-1.76,1.72-2.44,1.01-.74.37-.72.83-1.44.53-.82.76-.78,1.1-1.86.18-.58,1.8-1.45,1.97-2,.28-.88.54-1.24,1.11-2.03.22-.31,1.55-1.48,1.61-1.67s-.02-.54.03-.77c.67-.02.84-.94,1.26-1.42.46-.54,2.26-1.67,2.31-1.82.27-.82.7-1.2,1.27-1.85.09-.1.58-.57.62-.58.31-.07.85.09,1.21.04l.24.53ZM31.33,14.84v-.34s-.16,0-.16,0v.34s.16,0,.16,0ZM27.53,34.87c.15-.3-.15-.55-.15-.61-.11-.98.24-1.09.75-1.7.57-.68,1.04-1.16,1.28-2.02.22-.81.15-.45.55-1.02.18-.26.66-1.13.74-1.35s-.1-.53.2-.68v-.34s-.4-.62-.4-.62c-.82-.25-.97.42-1.22.47-.56.13-.63-.14-.96.4-.25.41-1.98.95-1.97,1.91h-.34c-1.12,1.73-2.56,3.45-3.46,5.3-.28.57-.8,1.17-1.09,1.69-.53.95-.57,1.89-.96,2.9-.03.09-.35.44-.36.5-.06.25-.19,1.15-.22,1.37-.05.42-.09,1.15-.05,1.55.02.17.1.39.24.44.37.12.62-.14.95-.14-.12-.33.17-.5.19-.6.11-.37.12-1.04.22-1.37.03-.1.62-.67.72-.84.15-.24-.09-.16.45-.42s.53-.47.81-.92c.31-.51.18-.27.45-.42.21-.11,1.07-1.88,1.2-2.29.11-.32.75-.44.97-.57.56-.33.53-1.29,1.49-.64ZM19.23,35.28l-.02.6c.33.5.73.22.7-.32l-.25-.27h-.43Z"/><path d="M61.72,24.85s.18-.04.26,0c.04.03.57.75.58.8.04.15-.05.37-.02.52.07.29.22.63.31,1.04.06.27.29.99.3,1.22.03.39.02,1.56-.07,1.89-.02.06-.32.41-.36.5s.03.25-.01.34c-.03.07-.14.1-.18.17-.81,1.59-3.71,2.89-5.22,3.7-.73.41-1.69.77-2.46,1.12-.28.13-.56.32-.8.58l.27,2.08.67.71c.14.52.38.69.48,1.22.09.49.41.57.85.37.39-.22.28-.42.37-.68.02-.05.68-.67.8-.75.04-.02.13.03.17,0,.33-.21.3-.53.78-.15v-.34c.57-.06.77-.58,1.33-.82.53-.22.88-.34,1.4-.64.37-.21.85-.49,1.23-.65.15-.06.37.11.61-.24.05-.07.14-.42.19-.51.07-.12.33-.25.36-.33.1-.31,0-.98.05-1.38.04-.3.17-1.51.23-1.72.03-.09.33-.24.36-.33.07-.22-.03-.6.03-.86.12-.55.78-1.4.93-1.86.05-.15-.03-.37.02-.52.2-.63,1.48-1.47,2.05-1.74.11-.05.47-.32.53-.33.17-.03.87,0,1.03.04.06.02.09.14.17.18.05.03.14-.02.17,0,.16.1.33.39.5.53.03.02.12-.03.17,0,.11.08.72,1.08.74,1.15.04.2-.06.48-.02.69.03.18.3.89.31,1.04.03.29.02,1.13-.05,1.38-.02.06-.14.09-.18.17-.06.12-.03.29-.27.42-.27.14-.13-.09-.45.42-.28.45-1.61,1.94-2.06,2.26-.51.36-1.82.75-2.03,1.39-.04.11.03.26-.01.34-.1.19-.51.71-.55.84-.05.2.03.51-.02.69-.04.12-.5.38-.54.5-.09.27-.1.65-.21,1.03-.3,1.05-.6,2.34-1.32,3.23-.27.33-.46.47-.72.84-.05.07-.66.5-.8.58-.05.03-.14-.03-.17,0-.12.08-.28.31-.36.33-.26.06-.72-.06-1.03-.04-.06,0-.12.16-.18.17-.41.02-1.35.02-1.72-.06-.06-.01-.1-.16-.17-.18-.11-.04-.25.03-.34-.01-.37-.16-.55-.51-.84-.72-.4-.29-.95-.49-1.26-.99-.04-.07-.11-.45-.15-.52-.22-.37-.54-.17-.76-.46h-.17c-.13.09-.23.25-.36.33-.29.19-.57.23-.87.31-.7.2-1.41.57-2.1.79s-1.06.21-1.74.28c-.07,0-.12.16-.18.17-.43.03-1.32.01-1.72-.06-.06-.01-.1-.16-.17-.18-.16-.04-.38.03-.52-.02-.22-.07-.5-.41-.67-.54-.03-.03-.13.02-.17,0-.27-.19-.22-.52-.49-.71-1.05-.72-.56-1.58-1.39-2.37v-.17c.68-.71.28-1.84.45-2.74.01-.06.16-.1.18-.17.1-.38-.02-.64-.32-.87l.89-.66c.03-.22-.02-.48.02-.69.01-.05.28-.17.19-.51-.04-.17-.3-.75-.32-.87-.05-.46-.07-1.05.47-1.1.63-.06,1.23.28,1.65-.37.13-.2.23-.57.37-.85.65-1.25,1.56-2.63,2.37-3.71.28-.38.66-.78.9-1.18.31-.51.17-.27.45-.42.57-.29,1.36-1.12,1.95-1.48.04-.03.13.03.17,0,.69-.42,2.31-1.5,2.99-1.62.4-.07.96-.06,1.39-.12.07-.01.11-.16.18-.17.22-.02.84-.01,1.03.04.06.02.43.34.51.36.15.05.37-.03.52.02.17.05,1.48,1.12,1.59,1.35.04.08-.04.22,0,.26ZM51.52,35.18c1.15-.04,1.74-.87,2.72-1.28.49-.21,1.44-.71,1.93-.8.2-.04.5.07.69.02.13-.03,2.13-1.28,2.21-1.39.38-.55.42-.43.8-.75.16-.13.96-.85.98-.91.05-.14-.03-.37.02-.52.02-.07.35-.44.36-.5.06-.22.07-.96.04-1.21,0-.06-.15-.11-.17-.18-.03-.16.05-.37.02-.52-.02-.1-.4-.38-.5-.53-.02-.04.03-.13,0-.17-.1-.18-1.34-1.07-1.6-1.18-.1-.04-.24.02-.34-.01-.07-.02-.1-.16-.17-.18-.18-.04-.7-.06-.86-.03-.07.01-.45.31-.53.33-.51.12-1.14.1-1.65.29v.34c-2.18,1.15-3.58,3.41-5.37,5.07-.35,1.04-1.11,1.79-1.65,2.7-.06.11-.27.21-.36.33l-.03.95c.28-.09.36.17.43.19.26.05.6-.03.86.03.07.02.64.37.68.37.05,0,.61-.43.86.03l.61-.15v-.34ZM69.08,31.83c-.02-.3.07-.66.03-.95,0-.06-.15-.11-.17-.18-.03-.1.04-.24.01-.34-.07-.29-.62-.54-.93-.46-.18.04-.6.91-.81,1.09-.31.79-.56,1.58-.77,2.39-.02.07-.28.17-.19.51.02.09.27.32.42.27.46-.29,1.19-.8,1.51-1.24.2-.27.31-.93.64-1.1.08-.04.23.04.26,0ZM53.02,36.96c-.19.02-.43-.05-.6-.02-.76.13-1.64.32-2.43.43-.38.06-1.59-.3-2.06-.42-.07-.02-.1-.16-.17-.18-.36-.08-1.02.02-1.14.39-.07.22.03.6-.03.86-.05.23-.43.91-.56,1.19-.1.3.28.86.31,1.04.05.35-.11.9-.04,1.21.03.12.42.37.5.53.04.08-.04.22,0,.26s.18-.04.26,0c.12.07.25.33.33.36.41.13,1.23-.03,1.72.06.06.01.1.16.17.18.42.11,1.31-.36,1.74-.46s.7-.08,1.03.04c.44.15,1.08-.79,1.59-.98.09-.04.23.04.26,0,.09-.28-.1-.31-.16-.44-.23-.48-.34-.68-.48-1.22-.02-.1-.31-.26-.33-.36-.08-.33-.07-.81-.31-1.04v-.17c.1-.12.36-.6.37-.68.04-.17,0-.41.02-.6ZM62.8,38.68c-.24.03-.57-.08-.78-.03-.08.02-.89.78-1.06.83-.74.18-.82.4-1.4.64-.79.33-1.56.78-2.29,1.3-.19.13-.23.23-.52.15-.34.03.08.71.32.87.29.2.73.28,1.02.38.08.03.69.59.84.72l1.03.04c.2-.27,1.06-.61,1.15-.91.16-.49.37-.75.56-1.19.07-.15.07-.51.2-.68.23-.33.39-.18.61-.24.29-.07.33-.65.29-.94,0-.07-.17-.12-.17-.18s.16-.1.18-.17c.04-.18,0-.41.02-.6ZM58.8,44.57h-.34s-.01.33-.01.33h.34s.01-.33.01-.33Z"/><path d="M77.62,24.37c-.12.07-.1.05-.18.17h-.26s-.25-.36-.25-.36l.6.02.08.18Z"/><path d="M77.62,24.37c.23-.14.41-.2.7-.15v-.34c1.23-.85,2.63-1.76,3.81-2.63.37-.27,1.5-1.42,1.78-1.49.33-.08.92.09,1.29.04l.31,1.13c-.3.15-.12.45-.2.68-.03.09-.29.22-.36.33-.28.48-.3.7-.81,1.09-2.06,1.57-3.47,3.16-5.1,5.08-.58.68-1.21,1.37-1.8,2.01-.77.83-2.12,2.3-2.53,3.19-.23.49-1.39,1.5-1.63,2.27h-.34c-.07.65-.5.87-.99,1.16-.64.38-.83,2.93-2.09,3.03.05.51-.15.95-.56,1.27l-.56,1.27c.61.13,1.08-.13,1.64-.12.23-.3.81-.63.98-.91.13-.22-.09-.19.45-.42,1.46-.62,1.93-1.57,3.19-2.48.56-.4.56-.48.98-.91.82-.85,3.01-2.53,3.39-3.16.77-1.28,3.04-2.24,4.09-3.48.05-.06.21-.53.45-.59.71-.17.79-.22,1.4-.64.82-.57,1.57-1.33,2.48-1.81.08-.04.66-.31.7-.32.29-.05.71.07,1.03.04.41.37.51,1.14.37,1.65-.02.06-.14.09-.18.17-.06.13-.03.28-.27.42-1.15.68-2.24,2.21-3.63,2.63v.34c-1.48.78-2.7,2.17-4.18,3.13-1.93,1.25-3.58,3.21-5.1,5.08-.03.04.02.14,0,.17-.22.26-1.2,1.02-1.25,1.16-.07.22.03.6-.03.86-.01.05-.28.16-.19.51.07.3.88.31,1.1.64.38-.22.9-.4,1.39-.3.07.01.11.18.17.18.04,0,.18-.26.44-.16l.02-.52c.28-.04.12.44.41.53.42.14.63-.32.7-.32.09.07.16.21.25.27.25.17.56-.03.51.28l-.78.15-.43-.19v.34c-.3-.09-.58.24-.8.32-.51.17-1.22.12-1.74.28-.15.05-.51.38-.7.32-.15-.3-.45-.12-.68-.2-.06-.02-.09-.14-.17-.18-.05-.03-.14.02-.17,0-.08-.05-.57-.58-.58-.62-.12-.48-.12-1-.47-1.4l.19-.6-.87.14v.34c-.41.02-.81.31-1.15.48-.81.4-1.42.74-2.28.96-.07.02-.11.16-.18.17-.15.02-.55.01-.69-.02-.06-.02-.09-.15-.17-.18-.45-.19-.53-.34-.84-.55-.08-.05-.44-.14-.51-.19-.42-.29-.65-.9-.56-1.4h.34c.22-.4.13-.85.22-1.27.01-.07.17-.1.18-.17.05-.26-.04-.64.03-.86.02-.05.68-.66.8-.75.04-.03.13.03.17,0,.55-.39.48-.72.48-1.36.7.06.66-.72.9-1.09.28-.44.7-.42.89-.83.55-1.21,1.44-2.19,2.19-3.37.39-.62,1-.75,1.43-1.33.14-.19.16-.6.46-.76.56-.29.29-.38.46-.93.05-.17.71-.75.9-1,.51-.66,1.22-1.29,1.71-1.92.12-.15.09-.31.27-.42-.16-.83-.68-.19-1.12.05-1.02.11-1.83.54-2.79.77-.15.04-.29.46-.62.32v-.34s-.33-.18-.33-.18l1.47-.12.79-.32-.15-.52.95-.14c.46-.27.75-.61,1.31-.47-.04-.28.04-.46.2-.68l.18-.17ZM68.04,41.96c.33.06.57-.17.54-.5l-.52.15v.34ZM70.7,42.4c-.11,0-.12.17,0,.17s.12-.17,0-.17Z"/><path d="M97.14,34.17c.29-.08.32.14.43.19.15.07.44-.06.59.28l-.18.17c.23.18.2.74.14,1.04-.01.06-.16.1-.18.17-.04.11.03.25-.01.34-.24.54-.86.87-1.25,1.34-.03.03.02.14,0,.17-.99,1.24-1.85,2.45-2.55,3.88-.23.47-.92.78-.3,1.28.19-.11.55-.1.7-.15.18-.06.89-.44.97-.57.35-.57,1.09-.7,1.84-.88.11-.03,1.34-1.13,1.6-1.32,1.14-.85,2.86-1.51,4.22-2.27.04-.02.13.03.17,0,.31-.18.61-.64.64-1.01l.15.69.69.02.02-.52h.34c-.04-.79,1.28-.59,1.03.13-.12.35-1.03.68-1.4.55l.16.26c-.44.49-.71.69-1.4.55l.15.61c-.27.18-.54.6-.8.75-.41.23-.36-.01-.62.41-.23.38-1.41.92-1.86,1.23-2.06,1.43-3.93,2.91-6.35,3.92-.33-.39-1.1-.09-1.55-.23-.26-.18-.23-.55-.49-.71-.08-.05-.23.02-.26,0s.05-.18,0-.26c-.06-.13-.5-.58-.49-.71.39-.33.09-1.1.23-1.54.04-.14.54-.32.37-.76-.29-.08-.35.1-.53.24-.53.41-.98.84-1.51,1.24-1.25.94-2.3,1.57-3.87,1.93-.08.02-.46.31-.53.33-.7.13-.69-.18-1.02-.38s-.69-.27-1.02-.38c-.31-.1-.91-1.22-.89-1.58l-.52-.02c-.14-.15.44-.71.55-.93.19-.39.18-1.12.9-1.09-.05-1.15.79-2.1.97-3.15.03-.07.14-.1.18-.17.58-1.14,2.18-2.1,3.04-3.17.71-.89,1.05-1.56,2.06-2.26.49-.34,1.24-.85,1.77-1.15.66-.38,1.3-.53,1.93-.8.25-.11.29-.09.52-.15.15-.04.27-.26.7-.15.06.02.41.32.51.36.1.04.25-.03.34.01.17.08.42.37.68.37l.89,1.67c.03.49-.11,1.08-.05,1.55,0,.05.29.3.15.61ZM94.96,32.2l-1.03-.04v.34c-.86-.42-1.32.71-1.68.8-.98.24-1.52.72-2.03,1.39-.3.39-.89.77-1.25,1.16-1.18,1.3-2.36,2.92-3.26,4.45h-.34s-.01.42-.01.42l.51.19-.61.07c-.48.26-.1.81-.47,1.1v.17c-.04.53.88.55,1.27.48.06-.01.42-.26.53-.33.05-.02.13.03.17,0,.37-.22.5-.73.9-1,.45-.31,1.24-.71,1.34-1.33.19-.02.44.06.6.02.33-.08.44-.87.02-.69-.63.27-1.14.54-1.75.8-.3.12-.28.02-.7.32-.18.13-.45.32-.61.07.22-.27.51-.4.8-.58.16-.09.54-.23.7-.32.26-.14.32-.47.79-.32-.09-.4.1-.55.2-.77.04-.09-.02-.23,0-.26.03-.03.18.05.26,0,.61-.31.71-.91,1.33-.99v-.34s.36.01.36.01v-.34c1-.43,2-1.32,2.93-1.97.47-.33.68-1.05.82-1.18.02-.02.44.04.53-.24.18-.57-.33-.68-.31-1.13ZM94.17,35.11c.07.09.47-.29.36-.5-.07-.09-.47.29-.36.5ZM105.59,37.05c-.11,0-.12.17,0,.17s.12-.17,0-.17ZM91.63,38.64l-.52-.02c.08.39-.43.43-.37.85l.86.03.03-.86Z"/><path d="M55.47,16.02l-.52-.02c.11.47-.18.5-.37.76-.3.41-.66,1.23-1.25,1.25-.18,1.23-1.43,2.15-2.43,2.85-.69.48-1.05,1.5-1.54,2.1-.19.24-1.02.85-1.07,1-.33,1.03-1.99,2.96-2.73,4.04-.67.98-1.33,1.95-2,2.86-.74,1.01-1.8,2.3-2.36,3.37s-1.89,2.29-2.18,3.2c-.18.56-1.13,2.25-1.48,2.88-.17.3-.87,1.17-.91,1.35-.08.31-.09,1.2.21,1.3.14.04.36-.02.52.02.18.05.34.12.51.19.3.12-.15.61-.12.86-.64-.11-1.24.02-1.23.73,0,.15-.35.1-.43.07-.14-.05-.61-.72-.83-.89-.03-.03-.13.02-.17,0-.3-.21-.31-.69-.57-.97.39-.33.09-1.1.23-1.54l.54-.67c.04-.1-.03-.24.01-.34.27-.66.64-1.14.92-1.69.12-.23.39-.39.02-.69.54-.48.49-.94.92-1.52.59-.8,1.11-1.56,1.81-2.35.49-.55,1.14-.95,1.27-1.85.13-.19.67-.53.71-.66.09-.3-.06-.59-.14-.87-.07-.23-.2.11-.35.07-.2-.54.33-.78.38-.93.06-.18-.03-.49.02-.69.11-.41,1.02-1.28,1.09-1.51.05-.14-.03-.37.02-.52.07-.22,1.36-1.11,1.61-1.67.14-.3.45-.53.88-.57v-.34s.36.01.36.01c.38-1.4,1.7-2.68,2.72-3.78.37-.4,1.25-1.48,1.52-1.58.25-.09.79-.49.98-.74.9-1.26,1.93-2.35,2.88-3.52.43-.53.99-.64,1.66-.55.17.32.59.36.76.63.02.04-.03.12,0,.17.03.08.15.12.17.18.03.17-.04.41-.02.6ZM40.63,33.26c-.11,0-.12.17,0,.17s.12-.17,0-.17Z"/><path d="M176.72,24.51l-.02.69c-.72-.1-1.12-.04-1.57.55-.02.03-.06.37-.27.42-.73.17-.99.33-1.58.81-.49.4-3.41,3.01-3.48,3.24-.05.14.03.37-.02.52-.05.16-1,1.26-.92,1.78h-.34c-.07.68-.7,1.6-.6,2.29.17,1.16-.05,1.2-.25,2.23-.05.24,0,.53-.03.77-.88-.3-.89-1.01-.8-1.84-.1-.24-.36-.23-.42-.27-.46-.31-.49-1.5-.36-1.99.02-.06.32-.4.36-.5s-.03-.25.01-.34c.46-1.07.96-1.93,1.31-3.06.05-.17.84-.67.89-.83.05-.14-.03-.37.02-.52.12-.37,1.09-.95,1.09-1.43h.34s.01-.33.01-.33c1.05-.2,1.57-1.42,2.81-1.28v-.34c.15-.01.33.04.44.01.08-.02.13-.23.35-.16.07.02.1.16.17.18.24.06.6-.02.86.03l.54-.67h.34c.26.33.77.25,1.12.05ZM169.97,27.55c-.11,0-.12.17,0,.17s.12-.17,0-.17ZM170.57,27.57h-.34s-.01.33-.01.33l.36-.33Z"/><path d="M138.7,35.61c-.21.2-.14.47-.19.6-.12.26-.4.45-.54.67-.05.08-.14.44-.19.51-.23.33-1.01.54-1.32.73-.45.27-.48.62-.89.83-.44.23-1.05,1.69-1.62,1.84-.18.05-.38-.04-.61.15-.02-.55-.66-.91-.64-1.4h-.34s-.15-.62-.15-.62c.4-.32.76-.78,1.16-1.08.73-.55,1.35-.72,2.28-.96.1-.03.26-.31.36-.33.24-.06.58.03.87-.14.33-.19.25-.49.28-.51.11-.1.77-.1.95-.14.1-.02.3-.29.61-.15Z"/><path d="M15.17,28.07l.15.61c-.46.37-.69.63-.9,1.18-.05.12-.37.12-.53.24-.08-.49.38-.78.39-1.19l.34.1c-.56-.32.36-1.15.55-.93Z"/><path d="M81.48,42.77l-.2.77c-.34.41-.81.65-1.21.13l.87-.31-.51-.28,1.05-.31Z"/><path d="M12.78,32.3l-.32-.7.44-.16.25.27c.04.29-.06.53-.37.59Z"/><path d="M144.03,21.32l-1.39.3c-.05-.47.09-.33.44-.33.32,0,.63.03.95.03Z"/><polygon points="129.52 26.5 129.97 26 130.58 25.76 129.52 26.5"/><path d="M128.8,27.17s-.18-.05-.26,0c-.17.09-.38.54-.62.41l.8-.75.07.35Z"/><rect x="70.94" y="27.59" width=".17" height=".52" transform="translate(40.75 97.87) rotate(-88.02)"/><rect x="13.52" y="30.61" width=".52" height=".17" transform="translate(-17.37 43.41) rotate(-88.02)"/><rect x="167.56" y="67.2" width=".17" height=".35" transform="translate(94.53 232.59) rotate(-88.02)"/><polygon points="130.03 26.69 130.04 26.52 130.54 26.8 130.45 26.88 130.03 26.69"/><rect x="145.16" y="20.93" width=".17" height=".35" transform="translate(119.15 165.53) rotate(-88.02)"/><rect x="145.85" y="20.95" width=".17" height=".35" transform="translate(119.79 166.24) rotate(-88.02)"/><path d="M131.2,25.18c.11,0,.11.18,0,.17s-.11-.18,0-.17Z"/><path d="M131.55,25.02c.11,0,.11.18,0,.17s-.11-.18,0-.17Z"/><path d="M130.48,26.19c.11,0,.11.18,0,.17s-.11-.18,0-.17Z"/><path d="M122.43,59.35c.11,0,.11.18,0,.17s-.11-.18,0-.17Z"/><path d="M191.45,32.95c-.11-.34.32-.45.37-.59.07-.24-.02-.67.03-.95.28.13.56.4.49.71h.09c.09-.19.31-.13.35-.16.39-.24.58-.83,1.14-.65-.07-.41.17-.69.55-.84-.04.62-.46,1.24-.84,1.69l-.87.14-1.32.64Z"/></g></svg>